<svg xmlns="http://www.w3.org/2000/svg" viewBox="0 0 30 30">
  <path style="line-height:normal;text-indent:0;text-align:start;text-decoration-line:none;text-decoration-style:solid;text-decoration-color:#000;text-transform:none;block-progression:tb;isolation:auto;mix-blend-mode:normal" d="M 5 4 C 3.895 4 3 4.895 3 6 L 3 10 L 27 10 L 27 6 C 27 4.895 26.105 4 25 4 L 5 4 z M 6 6 C 6.552 6 7 6.448 7 7 C 7 7.552 6.552 8 6 8 C 5.448 8 5 7.552 5 7 C 5 6.448 5.448 6 6 6 z M 10 6 C 10.552 6 11 6.448 11 7 C 11 7.552 10.552 8 10 8 C 9.448 8 9 7.552 9 7 C 9 6.448 9.448 6 10 6 z M 3 12 L 3 25 A 1.0001 1.0001 0 0 0 4 26 L 26 26 A 1.0001 1.0001 0 0 0 27 25 L 27 12 L 25 12 L 25 24 L 5 24 L 5 12 L 3 12 z M 7 12 L 7 22 L 14 22 L 14 12 L 7 12 z M 17 12 A 1.0001 1.0001 0 1 0 17 14 L 22 14 A 1.0001 1.0001 0 1 0 22 12 L 17 12 z M 17 16 A 1.0001 1.0001 0 1 0 17 18 L 22 18 A 1.0001 1.0001 0 1 0 22 16 L 17 16 z M 17 20 A 1.0001 1.0001 0 1 0 17 22 L 22 22 A 1.0001 1.0001 0 1 0 22 20 L 17 20 z" font-weight="400" font-family="sans-serif" white-space="normal" overflow="visible" />
</svg>
