<?xml version="1.0" encoding="UTF-8"?>
<svg viewBox="0 0 1000 1000" xmlns="http://www.w3.org/2000/svg" xmlns:xlink="http://www.w3.org/1999/xlink" version="1.1">
 <g id="american-express">
  <g id="american-express-1">
   <path id="Rectangle-1" d="M925.64 187.516 C875.566 187.516 345.405 187.516 49.334 187.516 24.297 187.516 -0.741 212.553 -0.741 237.591 L-0.741 738.337 C-0.741 788.412 24.297 813.449 74.371 813.449 353.683 813.449 875.566 813.449 925.64 813.449 975.715 813.449 1000.752 788.412 1000.752 738.337 L1000.752 262.628 C1000.752 212.553 975.715 187.516 925.64 187.516 Z M925.64 187.516" fill="#306fc5" fill-opacity="1" stroke="none"/>
   <path id="Shape" d="M83.884 416.766 L64.488 369.502 45.203 416.766 Z M511.182 397.946 C507.288 400.309 502.682 400.388 497.165 400.388 L462.738 400.388 462.738 374.054 497.633 374.054 C502.571 374.054 507.724 374.276 511.072 376.193 514.748 377.92 517.022 381.596 517.022 386.674 517.022 391.856 514.859 396.025 511.182 397.946 511.182 397.946 514.859 396.025 511.182 397.946 Z M756.776 416.766 L737.165 369.502 717.662 416.766 Z M298.975 467.925 L269.923 467.925 269.816 375.07 228.724 467.925 203.842 467.925 162.643 374.988 162.643 467.925 105.004 467.925 94.115 441.48 35.111 441.48 24.111 467.925 -6.667 467.925 44.08 349.366 86.184 349.366 134.381 461.617 134.381 349.366 180.634 349.366 217.72 429.794 251.789 349.366 298.971 349.366 298.971 467.925 Z M414.762 467.925 L320.095 467.925 320.095 349.366 414.762 349.366 414.762 374.054 348.434 374.054 348.434 395.425 413.171 395.425 413.171 419.727 348.434 419.727 348.434 443.404 414.762 443.404 Z M548.241 381.296 C548.241 400.199 535.625 409.965 528.272 412.897 534.473 415.257 539.769 419.427 542.29 422.881 546.292 428.778 546.982 434.046 546.982 444.634 L546.982 467.925 518.399 467.925 518.292 452.973 C518.292 445.839 518.975 435.58 513.818 429.876 509.677 425.706 503.365 424.802 493.163 424.802 L462.742 424.802 462.742 467.925 434.405 467.925 434.405 349.366 499.585 349.366 C514.068 349.366 524.739 349.748 533.901 355.044 542.866 360.34 548.241 368.072 548.241 381.296 Z M593.592 467.925 L564.676 467.925 564.676 349.366 593.592 349.366 Z M929.051 467.925 L888.892 467.925 835.177 378.939 835.177 467.925 777.463 467.925 766.435 441.48 707.567 441.48 696.867 467.925 663.707 467.925 C649.932 467.925 632.492 464.878 622.615 454.811 612.655 444.745 607.474 431.11 607.474 409.55 607.474 391.967 610.571 375.892 622.751 363.19 631.912 353.728 646.259 349.366 665.788 349.366 L693.223 349.366 693.223 374.77 666.364 374.77 C656.022 374.77 650.182 376.307 644.557 381.793 639.726 386.785 636.411 396.222 636.411 408.649 636.411 421.351 638.936 430.509 644.203 436.492 648.566 441.183 656.494 442.607 663.953 442.607 L676.68 442.607 716.621 349.369 759.083 349.369 807.062 461.509 807.062 349.369 850.21 349.369 900.024 431.939 900.024 349.369 929.051 349.369 Z M-6.996 491.212 L41.423 491.212 52.34 464.878 76.782 464.878 87.671 491.212 182.94 491.212 182.94 471.079 191.444 491.298 240.9 491.298 249.404 470.778 249.404 491.212 486.165 491.212 486.054 447.985 490.635 447.985 C493.842 448.096 494.779 448.393 494.779 453.689 L494.779 491.212 617.233 491.212 617.233 481.149 C627.11 486.441 642.472 491.212 662.688 491.212 L714.204 491.212 725.228 464.878 749.67 464.878 760.452 491.212 859.726 491.212 859.726 466.198 874.76 491.212 954.312 491.212 954.312 325.857 875.582 325.857 875.582 345.385 864.557 325.857 783.771 325.857 783.771 345.385 773.648 325.857 664.526 325.857 C646.259 325.857 630.203 328.406 617.233 335.512 L617.233 325.857 541.929 325.857 541.929 335.512 C533.676 328.188 522.429 325.857 509.924 325.857 L234.81 325.857 216.351 368.565 197.394 325.857 110.74 325.857 110.74 345.385 101.221 325.857 27.319 325.857 -7 404.475 -7 491.212 Z M1001 578.517 L949.352 578.517 C944.195 578.517 940.769 578.71 937.883 580.659 934.894 582.579 933.742 585.429 933.742 589.191 933.742 593.665 936.267 596.708 939.94 598.024 942.929 599.064 946.14 599.368 950.861 599.368 L966.22 599.78 C981.718 600.162 992.064 602.826 998.372 609.324 999.52 610.229 1000.21 611.244 1001 612.26 Z M1001 656.699 C994.116 666.766 980.703 671.868 962.544 671.868 L907.816 671.868 907.816 646.439 962.322 646.439 C967.729 646.439 971.512 645.728 973.79 643.503 975.764 641.669 977.141 639.005 977.141 635.769 977.141 632.314 975.764 629.571 973.679 627.926 971.623 626.117 968.63 625.294 963.695 625.294 937.086 624.39 903.89 626.117 903.89 588.59 903.89 571.39 914.811 553.284 944.549 553.284 L1000.996 553.284 1000.996 529.69 948.551 529.69 C932.723 529.69 921.226 533.48 913.084 539.374 L913.084 529.69 835.509 529.69 C823.104 529.69 808.542 532.765 801.655 539.374 L801.655 529.69 663.127 529.69 663.127 539.374 C652.103 531.42 633.5 529.69 624.914 529.69 L533.54 529.69 533.54 539.374 C524.818 530.927 505.422 529.69 493.599 529.69 L391.336 529.69 367.935 555.015 346.017 529.69 193.257 529.69 193.257 695.159 343.142 695.159 367.255 669.433 389.97 695.159 482.36 695.241 482.36 656.316 491.443 656.316 C503.702 656.506 518.159 656.012 530.915 650.498 L530.915 695.156 607.12 695.156 607.12 652.029 610.796 652.029 C615.488 652.029 615.949 652.222 615.949 656.91 L615.949 695.152 847.446 695.152 C862.143 695.152 877.506 691.39 886.013 684.563 L886.013 695.152 959.443 695.152 C974.723 695.152 989.646 693.01 1001 687.524 Z M887.959 609.324 C893.476 615.035 896.434 622.244 896.434 634.449 896.434 659.96 880.495 671.868 851.916 671.868 L796.72 671.868 796.72 646.439 851.694 646.439 C857.069 646.439 860.881 645.728 863.27 643.503 865.219 641.669 866.617 639.005 866.617 635.769 866.617 632.314 865.104 629.571 863.159 627.926 860.992 626.117 858.002 625.294 853.067 625.294 826.566 624.39 793.377 626.117 793.377 588.59 793.377 571.39 804.183 553.284 833.893 553.284 L890.705 553.284 890.705 578.524 838.721 578.524 C833.567 578.524 830.217 578.717 827.367 580.666 824.263 582.586 823.111 585.436 823.111 589.198 823.111 593.672 825.747 596.715 829.312 598.031 832.301 599.072 835.513 599.375 840.34 599.375 L855.596 599.787 C870.98 600.162 881.54 602.823 887.959 609.324 887.959 609.324 881.54 602.823 887.959 609.324 Z M632.245 602 C628.454 604.25 623.766 604.443 618.252 604.443 L583.826 604.443 583.826 577.809 618.72 577.809 C623.766 577.809 628.816 577.916 632.245 579.951 635.918 581.871 638.113 585.543 638.113 590.618 638.113 595.692 635.918 599.78 632.245 602 632.245 602 635.918 599.78 632.245 602 Z M649.36 616.758 C655.668 619.086 660.824 623.26 663.242 626.714 667.243 632.504 667.823 637.907 667.937 648.36 L667.937 671.868 639.486 671.868 639.486 657.032 C639.486 649.897 640.173 639.334 634.906 633.82 630.764 629.571 624.453 628.556 614.115 628.556 L583.829 628.556 583.829 671.868 555.353 671.868 555.353 553.281 620.78 553.281 C635.127 553.281 645.576 553.914 654.878 558.877 663.821 564.281 669.446 571.683 669.446 585.211 669.443 604.139 656.819 613.798 649.36 616.758 649.36 616.758 656.819 613.798 649.36 616.758 Z M685.159 553.281 L779.741 553.281 779.741 577.805 713.381 577.805 713.381 599.365 778.121 599.365 778.121 623.56 713.381 623.56 713.381 647.155 779.741 647.262 779.741 671.868 685.159 671.868 Z M493.96 608.008 L457.338 608.008 457.338 577.809 494.289 577.809 C504.52 577.809 511.622 581.978 511.622 592.349 511.622 602.605 504.849 608.008 493.96 608.008 Z M429.113 661.083 L385.604 612.778 429.113 566.008 Z M316.751 647.155 L247.076 647.155 247.076 623.56 309.291 623.56 309.291 599.365 247.076 599.365 247.076 577.805 318.124 577.805 349.121 612.364 Z M542.047 592.349 C542.047 625.291 517.469 632.092 492.698 632.092 L457.338 632.092 457.338 671.868 402.257 671.868 367.362 632.611 331.098 671.868 218.847 671.868 218.847 553.281 332.825 553.281 367.691 592.152 403.738 553.281 494.289 553.281 C516.779 553.281 542.047 559.506 542.047 592.349 Z M542.047 592.349" fill="#ffffff" fill-opacity="1" stroke="none"/>
  </g>
 </g>
</svg>
