<svg xmlns="http://www.w3.org/2000/svg" viewBox="0 0 30 30"><path d="M24,4H6C4.895,4,4,4.895,4,6v18c0,1.105,0.895,2,2,2h18c1.105,0,2-0.895,2-2V6C26,4.895,25.105,4,24,4z M15.743,7.751 c0.563-0.661,1.453-1.11,2.22-1.11c0.049,0.857-0.261,1.698-0.816,2.31c-0.498,0.661-1.355,1.159-2.147,1.061 C14.829,9.155,15.302,8.298,15.743,7.751z M19.963,19.538c-0.596,0.907-1.257,1.821-2.261,1.821c-0.955,0-1.298-0.604-2.4-0.604 c-1.184,0-1.518,0.604-2.424,0.604c-1.004,0-1.714-0.963-2.343-1.861c-0.816-1.175-1.51-3.02-1.534-4.792 c-0.017-0.939,0.163-1.861,0.62-2.645c0.645-1.094,1.796-1.837,3.053-1.861c0.963-0.032,1.82,0.661,2.408,0.661 c0.563,0,1.616-0.661,2.808-0.661c0.514,0.001,1.886,0.155,2.735,1.461C20.559,11.702,19,12.567,19,14.486 c0.073,2.188,1.967,2.955,2,2.955C20.968,17.481,20.714,18.485,19.963,19.538z"/></svg>
