<svg xmlns="http://www.w3.org/2000/svg" viewBox="0 0 30 30">
  <path d="M 4 5 C 2.895 5 2 5.895 2 7 L 2 8 L 28 8 L 28 7 C 28 5.895 27.105 5 26 5 L 4 5 z M 2 11 L 2 23 C 2 24.105 2.895 25 4 25 L 26 25 C 27.105 25 28 24.105 28 23 L 28 11 L 2 11 z M 18 16 C 18.772 16 19.468 16.300297 20 16.779297 C 20.532 16.300297 21.228 16 22 16 C 23.657 16 25 17.343 25 19 C 25 20.657 23.657 22 22 22 C 21.228 22 20.532 21.699703 20 21.220703 C 19.468 21.699703 18.772 22 18 22 C 16.343 22 15 20.657 15 19 C 15 17.343 16.343 16 18 16 z M 20 21.220703 A 1 2.221 0 0 0 21 19 A 1 2.221 0 0 0 20 16.779297 A 1 2.221 0 0 0 19 19 A 1 2.221 0 0 0 20 21.220703 z" />
</svg>
