<svg xmlns="http://www.w3.org/2000/svg" viewBox="0 0 30 30"><path d="M26,5H4C2.895,5,2,5.895,2,7v16c0,1.105,0.895,2,2,2h22c1.105,0,2-0.895,2-2V7C28,5.895,27.105,5,26,5z M13,21H8 c-0.552,0-1-0.447-1-1s0.448-1,1-1h5c0.552,0,1,0.447,1,1S13.552,21,13,21z M16,17H8c-0.552,0-1-0.447-1-1s0.448-1,1-1h8 c0.552,0,1,0.447,1,1S16.552,17,16,17z M22,21h-1c-0.552,0-1-0.447-1-1s0.448-1,1-1h1c0.552,0,1,0.447,1,1S22.552,21,22,21z M22,17 h-1c-0.552,0-1-0.447-1-1s0.448-1,1-1h1c0.552,0,1,0.447,1,1S22.552,17,22,17z M22,11H8c-0.552,0-1-0.447-1-1s0.448-1,1-1h14 c0.552,0,1,0.447,1,1S22.552,11,22,11z"/></svg>
