<?xml version="1.0" encoding="UTF-8"?>
<svg xmlns="http://www.w3.org/2000/svg" viewBox="0 0 1000 1000">
   <path d="m896.667 877.556h-793.334c-57.069 0-103.333-46.263-103.333-103.334v-548.889c0-57.069 46.264-103.333 103.333-103.333h793.334c57.071 0 103.333 46.264 103.333 103.333v548.889c0 57.071-46.262 103.334-103.333 103.334z" fill="#fff" />
   <path d="m666.667 214.667c116.577 0 211.111 94.511 211.111 211.111s-94.534 211.111-211.111 211.111c-67.756 0-128.069-31.911-166.667-81.533 27.867-35.778 44.444-80.731 44.444-129.578 0-48.845-16.577-93.8-44.444-129.578 38.598-49.622 98.911-81.533 166.667-81.533z" fill="#f79f1a" />
   <path d="m500 296.2c27.867 35.778 44.444 80.733 44.444 129.578 0 48.844-16.577 93.8-44.444 129.578-27.867-35.778-44.444-80.731-44.444-129.578 0-48.845 16.577-93.8 44.444-129.578z" fill="#ff5f01" />
   <path d="m333.333 214.667c67.756 0 128.067 31.911 166.667 81.533-27.867 35.778-44.444 80.733-44.444 129.578 0 48.844 16.577 93.8 44.444 129.578-38.6 49.622-98.911 81.533-166.667 81.533-116.6 0-211.111-94.511-211.111-211.111s94.511-211.111 211.111-211.111z" fill="#ea001b" />
   <path fill="#000000" d="m843.978 732.244c-14.554-19.342-53.065-9.051-53.065 24.669 0 34.431 39.931 43.658 53.065 24.669v8.165h14.02v-91.749h-14.02zm-18.814 45.432c-12.066 0-19.875-9.227-19.875-20.763 0-11.537 7.811-20.762 19.875-20.762 11.716 0 19.878 9.222 19.878 20.762 0 12.071-8.162 20.763-19.878 20.763z" />
   <path fill="#000000" d="m312.282 732.244c-4.791-5.857-11.533-9.584-20.764-9.584-18.28 0-32.298 14.553-32.298 34.251 0 19.878 14.02 34.253 32.298 34.253 9.231 0 15.973-3.373 20.764-9.584v8.164h14.022v-65.311h-14.022zm-18.811 45.432c-12.602 0-19.875-9.227-19.875-20.763 0-11.537 7.273-20.762 19.875-20.762 11.533 0 19.167 9.222 19.342 20.762 0 12.071-7.806 20.763-19.342 20.763z" />
   <path fill="#000000" d="m502.527 722.482c-18.807 0-32.298 14.025-32.298 34.254 0 36.382 40.109 42.417 59.984 25.202l-6.742-10.649c-13.842 11.36-34.787 10.293-38.864-8.696h48.802c0-28.751-13.133-40.111-30.882-40.111zm-17.389 28.576c1.42-9.229 7.273-15.438 16.858-15.438 9.224 0 15.442 5.322 17.037 15.438z" />
   <path fill="#000000" d="m712.12 732.244c-14.731-19.522-53.067-8.52-53.067 24.669 0 34.074 39.758 43.834 53.067 24.669v8.165h14.553v-65.311h-14.553zm-18.813 45.432c-12.067 0-19.343-9.227-19.343-20.763 0-11.537 7.276-20.762 19.343-20.762 12.066 0 19.875 9.222 19.875 20.762 0 12.071-7.811 20.763-19.875 20.763z" />
   <path fill="#000000" d="m220.533 722.662c-8.164 0-16.857 2.485-22.717 11.531-4.26-7.271-11.534-11.531-21.652-11.531-6.744 0-13.486 2.485-18.808 9.585v-7.811h-14.556v65.133h14.553c0-33.542-4.437-53.593 15.971-53.593 18.103 0 14.554 18.1 14.554 53.593h14.02c0-32.473-4.438-53.593 15.971-53.593 18.102 0 14.553 17.744 14.553 53.593h14.551v-40.818h-.355c0-15.447-10.111-25.558-26.085-26.089z" />
   <path fill="#000000" d="m357.538 742.891c0-10.118 21.118-8.518 32.829-1.951l5.857-11.536c-16.682-10.824-53.595-10.646-53.595 14.556 0 25.376 40.64 14.729 40.64 26.62 0 11.18-23.958 10.291-36.733 1.42l-6.214 11.182c19.876 13.482 57.851 10.649 57.851-13.313.003-26.618-40.635-14.556-40.635-26.978z" />
   <path fill="#000000" d="m435.449 767.027v-29.458h23.247v-13.133h-23.247v-19.872h-14.553v19.872h-13.489v12.953h13.489v29.638c0 31.24 30.7 25.555 40.104 19.346l-3.904-12.069c-6.74 3.725-21.647 7.807-21.647-7.277z" />
   <path fill="#000000" d="m562.516 732.244v-7.811h-14.558v65.134h14.558v-36.736c0-20.587 16.86-17.924 22.715-14.907l4.256-13.488c-8.16-3.547-20.583-3.196-26.971 7.808z" />
   <path fill="#000000" d="m645.036 742.007 6.74-11.536c-20.583-16.149-58.025-7.275-58.025 26.622 0 35.138 39.749 42.236 58.025 26.618l-6.74-11.533c-16.329 11.533-36.738 4.615-36.738-15.262 0-20.234 20.586-26.805 36.738-14.909z" />
   <path fill="#000000" d="m759.502 732.244v-7.811h-14.02v65.134h14.02v-36.736c0-19.527 15.974-18.28 22.718-14.907l4.26-13.488c-4.262-2.129-19.524-5.147-26.978 7.808z" />
</svg>
