<svg viewBox="0 0 1000 1000" xmlns="http://www.w3.org/2000/svg">
 <path d="M38.967 193.004 C25.111 192.808 12.224 200.087 5.239 212.055 -1.746 224.022 -1.746 238.824 5.239 250.792 12.224 262.759 25.111 270.039 38.967 269.843 L961.033 269.843 C974.889 270.039 987.776 262.759 994.761 250.792 1001.746 238.824 1001.746 224.023 994.761 212.055 987.776 200.087 974.889 192.808 961.033 193.004 Z M38.967 461.94 C25.111 461.744 12.224 469.023 5.239 480.991 -1.746 492.959 -1.746 507.76 5.239 519.728 12.224 531.695 25.111 538.975 38.967 538.779 L961.033 538.779 C974.889 538.975 987.776 531.695 994.761 519.728 1001.746 507.76 1001.746 492.959 994.761 480.991 987.776 469.023 974.889 461.744 961.033 461.94 Z M38.967 730.876 C25.111 730.68 12.224 737.96 5.239 749.927 -1.746 761.895 -1.746 776.696 5.239 788.664 12.224 800.631 25.111 807.911 38.967 807.715 L961.033 807.715 C974.889 807.911 987.776 800.631 994.761 788.664 1001.746 776.696 1001.746 761.895 994.761 749.927 987.776 737.96 974.889 730.68 961.033 730.876 Z" />
</svg>
