<svg xmlns="http://www.w3.org/2000/svg" viewBox="0 0 30 30"><path d="M 26 4 A 1 1 0 0 0 25.800781 4.0214844 L 25.798828 4.0195312 L 15.75 5.390625 L 15.75 14 L 27 14 L 27 5 A 1 1 0 0 0 26 4 z M 13.742188 5.6621094 L 3.8691406 7.0097656 A 1 1 0 0 0 3 8 L 3 14 L 13.742188 14 L 13.742188 5.6621094 z M 3 16 L 3 22 A 1 1 0 0 0 3.9003906 22.994141 L 13.742188 24.337891 L 13.742188 16 L 3 16 z M 15.75 16 L 15.75 24.609375 L 25.798828 25.980469 A 1 1 0 0 0 25.800781 25.980469 A 1 1 0 0 0 26 26 A 1 1 0 0 0 27 25 L 27 16 L 15.75 16 z"/></svg>
