<svg xmlns="http://www.w3.org/2000/svg" viewBox="0 0 30 30">
  <path d="M 15 3 C 10.398 3 5.6113281 4.0371094 5.6113281 4.0371094 L 5.6074219 4.0410156 A 2 2 0 0 0 4 6 L 4 12 C 4 22.398 14.021484 26.744141 14.021484 26.744141 A 2 2 0 0 0 15 27 A 2 2 0 0 0 15.974609 26.744141 L 15.978516 26.744141 C 15.979516 26.744141 26 22.398 26 12 L 26 6 A 2 2 0 0 0 24.388672 4.0371094 C 24.388672 4.0371094 19.602 3 15 3 z M 21 9 C 21.25575 9 21.511531 9.0974688 21.707031 9.2929688 C 22.098031 9.6839688 22.098031 10.316031 21.707031 10.707031 L 14.146484 18.267578 C 13.958484 18.455578 13.704453 18.560547 13.439453 18.560547 C 13.174453 18.560547 12.919422 18.455578 12.732422 18.267578 L 9.2792969 14.814453 C 8.8882969 14.423453 8.8882969 13.791391 9.2792969 13.400391 C 9.6702969 13.009391 10.302359 13.009391 10.693359 13.400391 L 13.439453 16.146484 L 20.292969 9.2929688 C 20.488469 9.0974688 20.74425 9 21 9 z" />
</svg>
