<svg xmlns="http://www.w3.org/2000/svg" viewBox="0 0 30 30">
  <path d="M 7 2 C 5.895 2 5 2.895 5 4 L 5 18 C 5 19.105 5.895 20 7 20 L 23 20 C 24.105 20 25 19.105 25 18 L 25 4 C 25 2.895 24.105 2 23 2 L 7 2 z M 5 21.443359 L 5 26 C 5 27.105 5.895 28 7 28 L 23 28 C 24.105 28 25 27.105 25 26 L 25 21.443359 C 24.409 21.787359 23.732 22 23 22 L 7 22 C 6.268 22 5.591 21.787359 5 21.443359 z M 8 24 C 8.552 24 9 24.448 9 25 C 9 25.552 8.552 26 8 26 C 7.448 26 7 25.552 7 25 C 7 24.448 7.448 24 8 24 z M 12 24 C 12.552 24 13 24.448 13 25 C 13 25.552 12.552 26 12 26 C 11.448 26 11 25.552 11 25 C 11 24.448 11.448 24 12 24 z M 16 24 C 16.552 24 17 24.448 17 25 C 17 25.552 16.552 26 16 26 C 15.448 26 15 25.552 15 25 C 15 24.448 15.448 24 16 24 z M 22 24 C 22.552 24 23 24.448 23 25 C 23 25.552 22.552 26 22 26 C 21.448 26 21 25.552 21 25 C 21 24.448 21.448 24 22 24 z" />
</svg>
