<svg xmlns="http://www.w3.org/2000/svg" viewBox="0 0 30 30">
  <path d="M 15 6 C 11.818 6 10.5 8.041 10.5 10.5 C 10.5 11.328 10.896484 12.160156 10.896484 12.160156 C 10.737484 12.252156 10.473062 12.544547 10.539062 13.060547 C 10.662062 14.022547 11.079703 14.265156 11.345703 14.285156 C 11.446703 15.183156 12.413 16.333 12.75 16.5 L 12.75 17.841797 C 12 20.091797 6 19.75 6 25 L 24 25 C 24 19.75 18 20.091797 17.25 17.841797 L 17.25 16.5 C 17.588 16.333 18.553297 15.183156 18.654297 14.285156 C 18.920297 14.265156 19.337938 14.022547 19.460938 13.060547 C 19.526937 12.543547 19.262516 12.252156 19.103516 12.160156 C 19.103516 12.160156 19.5 11.409 19.5 10.5 C 19.5 8.679 18.785 7.125 17.25 7.125 C 17.25 7.125 16.717 6 15 6 z M 22.5 7.9980469 C 21.988 7.9980469 21.552344 8.0906563 21.152344 8.2226562 C 21.371344 8.9016563 21.5 9.659 21.5 10.5 C 21.5 11.032 21.416547 11.519734 21.310547 11.927734 C 21.455547 12.356734 21.505359 12.8285 21.443359 13.3125 C 21.302359 14.4135 20.874891 15.161812 20.337891 15.632812 C 20.181891 16.010813 19.968281 16.368937 19.738281 16.710938 C 20.022281 17.293937 20.438 17.812969 20.625 17.917969 L 20.625 17.929688 C 22.662 18.884688 26 20.49 26 25 L 30 25 C 30 20.042 25 20.753906 24.375 18.628906 L 24.375 17.916016 C 24.656 17.758016 25.460922 16.672219 25.544922 15.824219 C 25.765922 15.805219 26.114797 15.576969 26.216797 14.667969 C 26.271797 14.179969 26.051922 13.905359 25.919922 13.818359 C 25.919922 13.818359 26.25 13.107 26.25 12.25 C 26.25 10.53 25.654 9.0625 24.375 9.0625 C 24.375 9.0625 23.931 7.9980469 22.5 7.9980469 z M 7.5 8 C 6.069 8 5.625 9.0625 5.625 9.0625 C 4.346 9.0625 3.75 10.531953 3.75 12.251953 C 3.75 13.109953 4.0800781 13.818359 4.0800781 13.818359 C 3.9470781 13.904359 3.7282031 14.179969 3.7832031 14.667969 C 3.8852031 15.576969 4.2340781 15.807172 4.4550781 15.826172 C 4.5390781 16.674172 5.344 17.759969 5.625 17.917969 L 5.625 18.628906 C 5 20.752906 0 20.042 0 25 L 4 25 C 4 20.49 7.338 18.885688 9.375 17.929688 L 9.375 17.916016 C 9.562 17.811016 9.9777187 17.294938 10.261719 16.710938 C 10.031719 16.368938 9.8181094 16.008859 9.6621094 15.630859 C 9.1251094 15.160859 8.6966406 14.4125 8.5566406 13.3125 C 8.4936406 12.8225 8.5453594 12.343156 8.6933594 11.910156 C 8.5853594 11.499156 8.5 11.011 8.5 10.5 C 8.5 9.673 8.6170781 8.91275 8.8300781 8.21875 C 8.4350781 8.08975 8.005 8 7.5 8 z" />
</svg>
