<svg viewBox="0 0 1000 1000" xmlns="http://www.w3.org/2000/svg"><path d="m0 243.25h1000v500h-1000z" fill="#f6f6f6"/><path d="m925 187c-50 0-579.37 0-875 0-25 0-50 25-50 50v75h1000s0 116.075 0-50c0-50-25-75-75-75zm0 0" fill="#265697"/><path d="m0 687v50c0 50 25 75 75 75h850c50 0 75-25 75-75v-50zm0 0" fill="#d97b16"/><g fill="#265697"><path d="m697.591 373.138c-14.016-5.372-35.976-11.138-63.402-11.138-69.899 0-119.136 35.969-119.557 87.518-.393 38.106 35.152 59.362 61.985 72.048 27.536 12.999 36.792 21.289 36.66 32.896-.174 17.776-21.989 25.897-42.321 25.897-28.314 0-43.356-4.019-66.589-13.92l-9.116-4.215-9.928 59.367c16.521 7.401 47.076 13.816 78.8 14.148 74.36 0 122.634-35.557 123.183-90.604.266-30.169-18.582-53.126-59.393-72.053-24.727-12.268-39.869-20.454-39.709-32.876 0-11.023 12.817-22.81 40.511-22.81 23.133-.368 39.89 4.787 52.947 10.16l6.338 3.06z"/><path d="m878.99 366.862h-54.662c-16.933 0-29.605 4.722-37.042 21.992l-105.061 243.033h74.284s12.145-32.677 14.892-39.851c8.118 0 80.281.113 90.597.113 2.117 9.284 8.607 39.738 8.607 39.738h65.641zm-87.231 170.931c5.851-15.28 28.185-74.134 28.185-74.134-.418.706 5.807-15.354 9.379-25.311l4.781 22.865s13.545 63.303 16.377 76.577zm0 0"/><path d="m370.312 631.803 44.228-265.194h70.741l-44.259 265.194zm0 0"/><path d="m310.98 366.802-69.257 180.843-7.38-36.751c-12.893-42.365-53.063-88.265-97.972-111.245l63.328 231.925 74.845-.086 111.369-264.686z"/></g><path d="m177.472 366.638h-114.069l-.903 5.518c88.745 21.951 147.467 74.999 171.842 138.738l-24.804-121.867c-4.282-16.792-16.701-21.803-32.066-22.389" fill="#d97b16"/></svg>
